solid halfNakedFrame
   facet normal 1.000000e+00 0.000000e+00 -0.000000e+00
      outer loop
         vertex 3.000000e+00 1.138194e-15 0.000000e+00
         vertex 3.000000e+00 4.428257e+00 1.533010e+01
         vertex 3.000000e+00 0.000000e+00 3.172986e+01
      endloop
   endfacet
   facet normal 1.000000e+00 0.000000e+00 0.000000e+00
      outer loop
         vertex 3.000000e+00 0.000000e+00 3.172986e+01
         vertex 3.000000e+00 4.428257e+00 1.533010e+01
         vertex 3.000000e+00 5.000000e+00 1.730940e+01
      endloop
   endfacet
   facet normal 1.000000e+00 0.000000e+00 0.000000e+00
      outer loop
         vertex 3.000000e+00 0.000000e+00 3.172986e+01
         vertex 3.000000e+00 5.000000e+00 1.730940e+01
         vertex 3.000000e+00 5.400000e+00 1.869415e+01
      endloop
   endfacet
   facet normal 1.000000e+00 0.000000e+00 -0.000000e+00
      outer loop
         vertex 3.000000e+00 3.098076e+01 0.000000e+00
         vertex 3.000000e+00 3.098076e+01 2.309401e+00
         vertex 3.000000e+00 7.026333e+00 1.383010e+01
      endloop
   endfacet
   facet normal 1.000000e+00 -0.000000e+00 0.000000e+00
      outer loop
         vertex 3.000000e+00 7.026333e+00 1.383010e+01
         vertex 3.000000e+00 3.098076e+01 2.309401e+00
         vertex 3.000000e+00 7.598076e+00 1.580940e+01
      endloop
   endfacet
   facet normal 0.000000e+00 9.607215e-01 -2.775144e-01
      outer loop
         vertex 3.000000e+00 4.428257e+00 1.533010e+01
         vertex 3.000000e+00 0.000000e+00 0.000000e+00
         vertex 0.000000e+00 4.428257e+00 1.533010e+01
      endloop
   endfacet
   facet normal 0.000000e+00 9.607215e-01 -2.775144e-01
      outer loop
         vertex 0.000000e+00 4.428257e+00 1.533010e+01
         vertex 3.000000e+00 0.000000e+00 0.000000e+00
         vertex 0.000000e+00 0.000000e+00 0.000000e+00
      endloop
   endfacet
   facet normal 0.000000e+00 -5.000000e-01 -8.660254e-01
      outer loop
         vertex 3.700000e+01 3.098076e+01 0.000000e+00
         vertex 4.000000e+01 3.098076e+01 0.000000e+00
         vertex 3.700000e+01 7.026333e+00 1.383010e+01
      endloop
   endfacet
   facet normal -4.796873e-08 -5.000000e-01 -8.660254e-01
      outer loop
         vertex 3.700000e+01 7.026333e+00 1.383010e+01
         vertex 4.000000e+01 3.098076e+01 0.000000e+00
         vertex 4.000000e+01 4.428257e+00 1.533010e+01
      endloop
   endfacet
   facet normal 0.000000e+00 -5.000000e-01 -8.660254e-01
      outer loop
         vertex 0.000000e+00 3.098076e+01 0.000000e+00
         vertex 3.000000e+00 3.098076e+01 0.000000e+00
         vertex 0.000000e+00 4.428257e+00 1.533010e+01
      endloop
   endfacet
   facet normal 5.317135e-08 -5.000000e-01 -8.660254e-01
      outer loop
         vertex 0.000000e+00 4.428257e+00 1.533010e+01
         vertex 3.000000e+00 3.098076e+01 0.000000e+00
         vertex 3.000000e+00 7.026333e+00 1.383010e+01
      endloop
   endfacet
   facet normal 0.000000e+00 -5.000000e-01 -8.660254e-01
      outer loop
         vertex 0.000000e+00 4.428257e+00 1.533010e+01
         vertex 3.000000e+00 7.026333e+00 1.383010e+01
         vertex 3.000000e+00 4.428257e+00 1.533010e+01
      endloop
   endfacet
   facet normal 0.000000e+00 -5.000000e-01 -8.660254e-01
      outer loop
         vertex 3.000000e+00 4.428257e+00 1.533010e+01
         vertex 3.000000e+00 7.026333e+00 1.383010e+01
         vertex 3.700000e+01 7.026333e+00 1.383010e+01
      endloop
   endfacet
   facet normal 0.000000e+00 -5.000000e-01 -8.660254e-01
      outer loop
         vertex 3.000000e+00 4.428257e+00 1.533010e+01
         vertex 3.700000e+01 7.026333e+00 1.383010e+01
         vertex 3.700000e+01 4.428257e+00 1.533010e+01
      endloop
   endfacet
   facet normal 0.000000e+00 -5.000000e-01 -8.660254e-01
      outer loop
         vertex 3.700000e+01 4.428257e+00 1.533010e+01
         vertex 3.700000e+01 7.026333e+00 1.383010e+01
         vertex 4.000000e+01 4.428257e+00 1.533010e+01
      endloop
   endfacet
   facet normal 0.000000e+00 1.000000e+00 0.000000e+00
      outer loop
         vertex 3.000000e+00 3.098076e+01 2.309401e+00
         vertex 3.000000e+00 3.098076e+01 0.000000e+00
         vertex 0.000000e+00 3.098076e+01 2.309401e+00
      endloop
   endfacet
   facet normal 0.000000e+00 1.000000e+00 0.000000e+00
      outer loop
         vertex 0.000000e+00 3.098076e+01 2.309401e+00
         vertex 3.000000e+00 3.098076e+01 0.000000e+00
         vertex 0.000000e+00 3.098076e+01 0.000000e+00
      endloop
   endfacet
   facet normal 0.000000e+00 5.000000e-01 8.660254e-01
      outer loop
         vertex 3.000000e+00 3.098076e+01 2.309401e+00
         vertex 0.000000e+00 3.098076e+01 2.309401e+00
         vertex 3.000000e+00 7.598076e+00 1.580940e+01
      endloop
   endfacet
   facet normal 8.800801e-09 5.000000e-01 8.660254e-01
      outer loop
         vertex 3.000000e+00 7.598076e+00 1.580940e+01
         vertex 0.000000e+00 3.098076e+01 2.309401e+00
         vertex 0.000000e+00 5.000000e+00 1.730940e+01
      endloop
   endfacet
   facet normal 0.000000e+00 5.000000e-01 8.660254e-01
      outer loop
         vertex 4.000000e+01 3.098076e+01 2.309401e+00
         vertex 3.700000e+01 3.098076e+01 2.309401e+00
         vertex 4.000000e+01 5.000000e+00 1.730940e+01
      endloop
   endfacet
   facet normal -9.778673e-09 5.000000e-01 8.660254e-01
      outer loop
         vertex 4.000000e+01 5.000000e+00 1.730940e+01
         vertex 3.700000e+01 3.098076e+01 2.309401e+00
         vertex 3.700000e+01 7.598076e+00 1.580940e+01
      endloop
   endfacet
   facet normal 0.000000e+00 5.000000e-01 8.660254e-01
      outer loop
         vertex 4.000000e+01 5.000000e+00 1.730940e+01
         vertex 3.700000e+01 7.598076e+00 1.580940e+01
         vertex 3.700000e+01 5.000000e+00 1.730940e+01
      endloop
   endfacet
   facet normal 0.000000e+00 5.000000e-01 8.660254e-01
      outer loop
         vertex 3.700000e+01 5.000000e+00 1.730940e+01
         vertex 3.700000e+01 7.598076e+00 1.580940e+01
         vertex 3.000000e+00 7.598076e+00 1.580940e+01
      endloop
   endfacet
   facet normal 0.000000e+00 5.000000e-01 8.660254e-01
      outer loop
         vertex 3.700000e+01 5.000000e+00 1.730940e+01
         vertex 3.000000e+00 7.598076e+00 1.580940e+01
         vertex 3.000000e+00 5.000000e+00 1.730940e+01
      endloop
   endfacet
   facet normal 0.000000e+00 5.000000e-01 8.660254e-01
      outer loop
         vertex 3.000000e+00 5.000000e+00 1.730940e+01
         vertex 3.000000e+00 7.598076e+00 1.580940e+01
         vertex 0.000000e+00 5.000000e+00 1.730940e+01
      endloop
   endfacet
   facet normal 0.000000e+00 9.607214e-01 -2.775145e-01
      outer loop
         vertex 3.000000e+00 5.400000e+00 1.869415e+01
         vertex 3.000000e+00 5.000000e+00 1.730940e+01
         vertex 1.734723e-15 5.400000e+00 1.869415e+01
      endloop
   endfacet
   facet normal 0.000000e+00 9.607214e-01 -2.775145e-01
      outer loop
         vertex 1.734723e-15 5.400000e+00 1.869415e+01
         vertex 3.000000e+00 5.000000e+00 1.730940e+01
         vertex 1.734723e-15 5.000000e+00 1.730940e+01
      endloop
   endfacet
   facet normal 0.000000e+00 9.238687e-01 3.827096e-01
      outer loop
         vertex 3.000000e+00 0.000000e+00 3.172986e+01
         vertex 3.000000e+00 5.400000e+00 1.869415e+01
         vertex -1.734723e-15 0.000000e+00 3.172986e+01
      endloop
   endfacet
   facet normal 0.000000e+00 9.238687e-01 3.827096e-01
      outer loop
         vertex -1.734723e-15 0.000000e+00 3.172986e+01
         vertex 3.000000e+00 5.400000e+00 1.869415e+01
         vertex -1.734723e-15 5.400000e+00 1.869415e+01
      endloop
   endfacet
   facet normal 0.000000e+00 -1.000000e+00 0.000000e+00
      outer loop
         vertex 3.000000e+00 0.000000e+00 0.000000e+00
         vertex 3.000000e+00 0.000000e+00 3.172986e+01
         vertex 0.000000e+00 0.000000e+00 0.000000e+00
      endloop
   endfacet
   facet normal 0.000000e+00 -1.000000e+00 0.000000e+00
      outer loop
         vertex 0.000000e+00 0.000000e+00 0.000000e+00
         vertex 3.000000e+00 0.000000e+00 3.172986e+01
         vertex 0.000000e+00 0.000000e+00 3.172986e+01
      endloop
   endfacet
   facet normal -1.000000e+00 0.000000e+00 0.000000e+00
      outer loop
         vertex 0.000000e+00 0.000000e+00 3.172986e+01
         vertex 0.000000e+00 5.400000e+00 1.869415e+01
         vertex 0.000000e+00 5.000000e+00 1.730940e+01
      endloop
   endfacet
   facet normal -1.000000e+00 -0.000000e+00 -0.000000e+00
      outer loop
         vertex 0.000000e+00 3.098076e+01 2.309401e+00
         vertex 0.000000e+00 3.098076e+01 0.000000e+00
         vertex 0.000000e+00 5.000000e+00 1.730940e+01
      endloop
   endfacet
   facet normal -1.000000e+00 0.000000e+00 -0.000000e+00
      outer loop
         vertex 0.000000e+00 5.000000e+00 1.730940e+01
         vertex 0.000000e+00 3.098076e+01 0.000000e+00
         vertex 0.000000e+00 4.428257e+00 1.533010e+01
      endloop
   endfacet
   facet normal -1.000000e+00 -0.000000e+00 0.000000e+00
      outer loop
         vertex 0.000000e+00 5.000000e+00 1.730940e+01
         vertex 0.000000e+00 4.428257e+00 1.533010e+01
         vertex 0.000000e+00 0.000000e+00 3.172986e+01
      endloop
   endfacet
   facet normal -1.000000e+00 0.000000e+00 0.000000e+00
      outer loop
         vertex 0.000000e+00 0.000000e+00 3.172986e+01
         vertex 0.000000e+00 4.428257e+00 1.533010e+01
         vertex 0.000000e+00 1.138194e-15 0.000000e+00
      endloop
   endfacet
   facet normal 0.000000e+00 9.607215e-01 -2.775143e-01
      outer loop
         vertex 3.000000e+00 7.598076e+00 1.580940e+01
         vertex 3.700000e+01 7.598076e+00 1.580940e+01
         vertex 3.000000e+00 7.026333e+00 1.383010e+01
      endloop
   endfacet
   facet normal 0.000000e+00 9.607215e-01 -2.775143e-01
      outer loop
         vertex 3.000000e+00 7.026333e+00 1.383010e+01
         vertex 3.700000e+01 7.598076e+00 1.580940e+01
         vertex 3.700000e+01 7.026333e+00 1.383010e+01
      endloop
   endfacet
   facet normal 0.000000e+00 -9.607215e-01 2.775143e-01
      outer loop
         vertex 3.000000e+00 4.428257e+00 1.533010e+01
         vertex 3.700000e+01 4.428257e+00 1.533010e+01
         vertex 3.000000e+00 5.000000e+00 1.730940e+01
      endloop
   endfacet
   facet normal 0.000000e+00 -9.607215e-01 2.775143e-01
      outer loop
         vertex 3.000000e+00 5.000000e+00 1.730940e+01
         vertex 3.700000e+01 4.428257e+00 1.533010e+01
         vertex 3.700000e+01 5.000000e+00 1.730940e+01
      endloop
   endfacet
   facet normal -1.000000e+00 -0.000000e+00 0.000000e+00
      outer loop
         vertex 3.700000e+01 5.400000e+00 1.869415e+01
         vertex 3.700000e+01 5.000000e+00 1.730940e+01
         vertex 3.700000e+01 0.000000e+00 3.172986e+01
      endloop
   endfacet
   facet normal -1.000000e+00 0.000000e+00 0.000000e+00
      outer loop
         vertex 3.700000e+01 0.000000e+00 3.172986e+01
         vertex 3.700000e+01 5.000000e+00 1.730940e+01
         vertex 3.700000e+01 4.428257e+00 1.533010e+01
      endloop
   endfacet
   facet normal -1.000000e+00 0.000000e+00 0.000000e+00
      outer loop
         vertex 3.700000e+01 0.000000e+00 3.172986e+01
         vertex 3.700000e+01 4.428257e+00 1.533010e+01
         vertex 3.700000e+01 1.138194e-15 0.000000e+00
      endloop
   endfacet
   facet normal -1.000000e+00 0.000000e+00 -0.000000e+00
      outer loop
         vertex 3.700000e+01 7.598076e+00 1.580940e+01
         vertex 3.700000e+01 3.098076e+01 2.309401e+00
         vertex 3.700000e+01 7.026333e+00 1.383010e+01
      endloop
   endfacet
   facet normal -1.000000e+00 0.000000e+00 0.000000e+00
      outer loop
         vertex 3.700000e+01 7.026333e+00 1.383010e+01
         vertex 3.700000e+01 3.098076e+01 2.309401e+00
         vertex 3.700000e+01 3.098076e+01 0.000000e+00
      endloop
   endfacet
   facet normal 0.000000e+00 -1.000000e+00 0.000000e+00
      outer loop
         vertex 3.700000e+01 0.000000e+00 3.172986e+01
         vertex 3.700000e+01 0.000000e+00 0.000000e+00
         vertex 4.000000e+01 0.000000e+00 3.172986e+01
      endloop
   endfacet
   facet normal 0.000000e+00 -1.000000e+00 -0.000000e+00
      outer loop
         vertex 4.000000e+01 0.000000e+00 3.172986e+01
         vertex 3.700000e+01 0.000000e+00 0.000000e+00
         vertex 4.000000e+01 0.000000e+00 0.000000e+00
      endloop
   endfacet
   facet normal -0.000000e+00 9.238687e-01 3.827096e-01
      outer loop
         vertex 3.700000e+01 5.400000e+00 1.869415e+01
         vertex 3.700000e+01 0.000000e+00 3.172986e+01
         vertex 4.000000e+01 5.400000e+00 1.869415e+01
      endloop
   endfacet
   facet normal 0.000000e+00 9.238687e-01 3.827096e-01
      outer loop
         vertex 4.000000e+01 5.400000e+00 1.869415e+01
         vertex 3.700000e+01 0.000000e+00 3.172986e+01
         vertex 4.000000e+01 0.000000e+00 3.172986e+01
      endloop
   endfacet
   facet normal 0.000000e+00 9.607214e-01 -2.775145e-01
      outer loop
         vertex 3.700000e+01 5.000000e+00 1.730940e+01
         vertex 3.700000e+01 5.400000e+00 1.869415e+01
         vertex 4.000000e+01 5.000000e+00 1.730940e+01
      endloop
   endfacet
   facet normal 0.000000e+00 9.607214e-01 -2.775145e-01
      outer loop
         vertex 4.000000e+01 5.000000e+00 1.730940e+01
         vertex 3.700000e+01 5.400000e+00 1.869415e+01
         vertex 4.000000e+01 5.400000e+00 1.869415e+01
      endloop
   endfacet
   facet normal 0.000000e+00 1.000000e+00 0.000000e+00
      outer loop
         vertex 3.700000e+01 3.098076e+01 0.000000e+00
         vertex 3.700000e+01 3.098076e+01 2.309401e+00
         vertex 4.000000e+01 3.098076e+01 0.000000e+00
      endloop
   endfacet
   facet normal 0.000000e+00 1.000000e+00 -0.000000e+00
      outer loop
         vertex 4.000000e+01 3.098076e+01 0.000000e+00
         vertex 3.700000e+01 3.098076e+01 2.309401e+00
         vertex 4.000000e+01 3.098076e+01 2.309401e+00
      endloop
   endfacet
   facet normal 0.000000e+00 9.607215e-01 -2.775144e-01
      outer loop
         vertex 3.700000e+01 0.000000e+00 0.000000e+00
         vertex 3.700000e+01 4.428257e+00 1.533010e+01
         vertex 4.000000e+01 0.000000e+00 0.000000e+00
      endloop
   endfacet
   facet normal 0.000000e+00 9.607215e-01 -2.775144e-01
      outer loop
         vertex 4.000000e+01 0.000000e+00 0.000000e+00
         vertex 3.700000e+01 4.428257e+00 1.533010e+01
         vertex 4.000000e+01 4.428257e+00 1.533010e+01
      endloop
   endfacet
   facet normal 1.000000e+00 0.000000e+00 0.000000e+00
      outer loop
         vertex 4.000000e+01 0.000000e+00 3.172986e+01
         vertex 4.000000e+01 1.138194e-15 0.000000e+00
         vertex 4.000000e+01 4.428257e+00 1.533010e+01
      endloop
   endfacet
   facet normal 1.000000e+00 0.000000e+00 0.000000e+00
      outer loop
         vertex 4.000000e+01 5.400000e+00 1.869415e+01
         vertex 4.000000e+01 0.000000e+00 3.172986e+01
         vertex 4.000000e+01 5.000000e+00 1.730940e+01
      endloop
   endfacet
   facet normal 1.000000e+00 0.000000e+00 0.000000e+00
      outer loop
         vertex 4.000000e+01 5.000000e+00 1.730940e+01
         vertex 4.000000e+01 0.000000e+00 3.172986e+01
         vertex 4.000000e+01 4.428257e+00 1.533010e+01
      endloop
   endfacet
   facet normal 1.000000e+00 0.000000e+00 0.000000e+00
      outer loop
         vertex 4.000000e+01 5.000000e+00 1.730940e+01
         vertex 4.000000e+01 4.428257e+00 1.533010e+01
         vertex 4.000000e+01 3.098076e+01 2.309401e+00
      endloop
   endfacet
   facet normal 1.000000e+00 0.000000e+00 0.000000e+00
      outer loop
         vertex 4.000000e+01 3.098076e+01 2.309401e+00
         vertex 4.000000e+01 4.428257e+00 1.533010e+01
         vertex 4.000000e+01 3.098076e+01 0.000000e+00
      endloop
   endfacet
endsolid